# xmcd
#
# Track frame offsets:
# 182
# 12462
# 26977
# 55775
# 69737
# 82585
# 96125
# 116242
# 129690
# 147270
# 164447
# 184670
# 207280
# 220815
# 248927
# 262350
#
# Disc length: 3797 seconds
#
#
# Revision: 2
# Processed by: cddbd v1.5.1PL0 Copyright (c) Steve Scherf et al.
# Submitted via: FreeRIP 2.70 
#
DISCID=f30ed310
DTITLE=El Tri - Un Cuarto De Siglo [CD 1)
DYEAR=1900
DGENRE=
TTITLE0=Oye
TTITLE1=Inyecciones
TTITLE2=San Juanico
TTITLE3=Vicioso
TTITLE4=Difícil
TTITLE5=No Puedo Dejar De Chupar
TTITLE6=Santa Martha
TTITLE7=Chilango Incomprendido
TTITLE8=El Hablador
TTITLE9=Tomate La Foto
TTITLE10=Que Viva El Rocanrol
TTITLE11=Igual Pa Todos
TTITLE12=El Semental
TTITLE13=El Boogie De El Tri
TTITLE14=La Encuerada De Avandaro
TTITLE15=Viejas De Vecindad
EXTD=
EXTT0=
EXTT1=
EXTT2=
EXTT3=
EXTT4=
EXTT5=
EXTT6=
EXTT7=
EXTT8=
EXTT9=
EXTT10=
EXTT11=
EXTT12=
EXTT13=
EXTT14=
EXTT15=
PLAYORDER=
